<svg xmlns="http://www.w3.org/2000/svg" width="24" height="20.365" viewBox="0 0 24 20.365">
  <g id="audio-active" transform="translate(-2)">
    <path id="Trazado_292" data-name="Trazado 292" d="M15.428,16.062a1.04,1.04,0,0,0-.936.087l-8.609,5.66H1.77A1.638,1.638,0,0,0,0,23.264v5.818a1.637,1.637,0,0,0,1.77,1.455H5.883L14.49,36.2a1.023,1.023,0,0,0,.554.159,1.053,1.053,0,0,0,.384-.073.729.729,0,0,0,.5-.655V16.718A.732.732,0,0,0,15.428,16.062Z" transform="translate(2 -15.99)" fill="#efefef"/>
    <path id="Trazado_293" data-name="Trazado 293" d="M342.945,122.493a.626.626,0,0,0-.991.007.954.954,0,0,0,.006,1.182,7.585,7.585,0,0,1,0,9.429.951.951,0,0,0-.006,1.18.625.625,0,0,0,.991.005,9.484,9.484,0,0,0,0-11.8Z" transform="translate(-322.418 -118.213)" fill="#efefef"/>
    <path id="Trazado_294" data-name="Trazado 294" d="M388.063,77.339a.678.678,0,0,0-.993,0,.766.766,0,0,0,0,1.042,9.118,9.118,0,0,1,0,12.485.768.768,0,0,0,0,1.044.68.68,0,0,0,.993,0,10.649,10.649,0,0,0,0-14.578Z" transform="translate(-364.949 -74.446)" fill="#efefef"/>
  </g>
</svg>
