<svg xmlns="http://www.w3.org/2000/svg" width="27.002" height="18.429" viewBox="0 0 27.002 18.429">
  <g id="img-not" transform="translate(0.002 0.002)">
    <path id="Sustracción_2" data-name="Sustracción 2" d="M13472.5-1317.572H13448.5a1.519,1.519,0,0,1-1.5-1.535v-10.523l6.452-6.371h19.055a1.519,1.519,0,0,1,1.5,1.539v15.355A1.517,1.517,0,0,1,13472.5-1317.572Zm-5.762-12.613a2.665,2.665,0,0,0-1.424.369,2.434,2.434,0,0,0-.934,1.075,3.988,3.988,0,0,0-.321,1.657v.436a3.736,3.736,0,0,0,.349,1.62,2.455,2.455,0,0,0,.967,1.055,2.879,2.879,0,0,0,1.458.362,4.172,4.172,0,0,0,1.44-.237,2.322,2.322,0,0,0,1.008-.659v-2.553h-2.52v.971h1.2v1.1a1.476,1.476,0,0,1-1.058.318,1.316,1.316,0,0,1-1.123-.514,2.565,2.565,0,0,1-.382-1.522v-.409a2.663,2.663,0,0,1,.354-1.5,1.178,1.178,0,0,1,1.024-.507,1.231,1.231,0,0,1,.829.257,1.243,1.243,0,0,1,.389.8h1.285a2.35,2.35,0,0,0-.761-1.579A2.7,2.7,0,0,0,13466.743-1330.185Zm-9.218,1.721,1.725,4.765h.9l1.727-4.762h0l-.132,3.013v1.748h1.321v-6.4h-1.73l-1.634,4.64-1.646-4.64h-1.722v6.4h1.319v-1.748Zm-3.727-1.633v6.4h1.318v-6.4Z" transform="translate(-13447 1336)" fill="#707074"/>
    <path id="Trazado_296" data-name="Trazado 296" d="M6.554,3.888c.021-.986,0-4.878,0-4.878L0,5.317s4.193-.008,5.172,0S6.533,4.874,6.554,3.888Z" transform="translate(0 1.005)" fill="#b2b2b2"/>
  </g>
</svg>
